<mxfile host="app.diagrams.net" agent="Mozilla/5.0 (Windows NT 10.0; Win64; x64) AppleWebKit/537.36 (KHTML, like Gecko) Chrome/134.0.0.0 Safari/537.36" version="26.1.0">
  <diagram name="Page-1" id="DBf8BUJnOoRHlGhux9IC">
    <mxGraphModel dx="1050" dy="557" grid="1" gridSize="10" guides="1" tooltips="1" connect="1" arrows="1" fold="1" page="1" pageScale="1" pageWidth="850" pageHeight="1100" math="0" shadow="0">
      <root>
        <mxCell id="0" />
        <mxCell id="1" parent="0" />
        <mxCell id="G0ueZ9c-5CWQi9ewSA1V-3" value="&lt;h1&gt;&lt;br&gt;&lt;/h1&gt;" style="rounded=0;whiteSpace=wrap;html=1;align=center;" vertex="1" parent="1">
          <mxGeometry x="10" y="140" width="1010" height="420" as="geometry" />
        </mxCell>
        <mxCell id="G0ueZ9c-5CWQi9ewSA1V-5" value="" style="sketch=0;points=[[0.015,0.015,0],[0.985,0.015,0],[0.985,0.985,0],[0.015,0.985,0],[0.25,0,0],[0.5,0,0],[0.75,0,0],[1,0.25,0],[1,0.5,0],[1,0.75,0],[0.75,1,0],[0.5,1,0],[0.25,1,0],[0,0.75,0],[0,0.5,0],[0,0.25,0]];verticalLabelPosition=bottom;html=1;verticalAlign=top;aspect=fixed;align=center;pointerEvents=1;shape=mxgraph.cisco19.pos;fillColor=#005073;strokeColor=none;" vertex="1" parent="1">
          <mxGeometry x="140" y="240" width="90" height="70.31" as="geometry" />
        </mxCell>
        <mxCell id="G0ueZ9c-5CWQi9ewSA1V-6" value="&lt;h1&gt;&lt;i style=&quot;font-weight: normal;&quot;&gt;POS&lt;/i&gt;&lt;/h1&gt;" style="text;strokeColor=none;align=center;fillColor=none;html=1;verticalAlign=middle;whiteSpace=wrap;rounded=0;" vertex="1" parent="1">
          <mxGeometry x="130" y="350" width="130" height="60" as="geometry" />
        </mxCell>
        <mxCell id="G0ueZ9c-5CWQi9ewSA1V-10" value="&lt;h1&gt;&lt;span style=&quot;font-weight: 400;&quot;&gt;&lt;i&gt;IN CUSTOMER&lt;/i&gt;&lt;/span&gt;&lt;/h1&gt;" style="text;strokeColor=none;align=center;fillColor=none;html=1;verticalAlign=middle;whiteSpace=wrap;rounded=0;" vertex="1" parent="1">
          <mxGeometry x="520" y="180" width="220" height="60" as="geometry" />
        </mxCell>
        <mxCell id="G0ueZ9c-5CWQi9ewSA1V-11" value="&lt;h1&gt;&lt;span style=&quot;font-weight: 400;&quot;&gt;&lt;i&gt;ONLINE (UBER , GRUBHUB)&lt;br&gt;&lt;/i&gt;&lt;/span&gt;&lt;/h1&gt;" style="text;strokeColor=none;align=center;fillColor=none;html=1;verticalAlign=middle;whiteSpace=wrap;rounded=0;" vertex="1" parent="1">
          <mxGeometry x="470" y="260" width="420" height="60" as="geometry" />
        </mxCell>
        <mxCell id="G0ueZ9c-5CWQi9ewSA1V-12" value="&lt;h1&gt;&lt;span style=&quot;font-weight: 400;&quot;&gt;&lt;i&gt;&lt;br&gt;&lt;/i&gt;&lt;/span&gt;&lt;/h1&gt;" style="text;strokeColor=none;align=center;fillColor=none;html=1;verticalAlign=middle;whiteSpace=wrap;rounded=0;" vertex="1" parent="1">
          <mxGeometry x="425" y="340" width="370" height="60" as="geometry" />
        </mxCell>
        <mxCell id="G0ueZ9c-5CWQi9ewSA1V-16" value="" style="endArrow=none;html=1;rounded=0;exitX=1;exitY=0.569;exitDx=0;exitDy=0;exitPerimeter=0;" edge="1" parent="1" source="G0ueZ9c-5CWQi9ewSA1V-5">
          <mxGeometry width="50" height="50" relative="1" as="geometry">
            <mxPoint x="510" y="420" as="sourcePoint" />
            <mxPoint x="430" y="330" as="targetPoint" />
            <Array as="points">
              <mxPoint x="250" y="280" />
              <mxPoint x="320" y="280" />
              <mxPoint x="430" y="330" />
            </Array>
          </mxGeometry>
        </mxCell>
        <mxCell id="G0ueZ9c-5CWQi9ewSA1V-13" value="&lt;h1&gt;&lt;span style=&quot;font-weight: 400;&quot;&gt;&lt;i&gt;LOYALATY PROGRAM&lt;/i&gt;&lt;/span&gt;&lt;/h1&gt;" style="text;strokeColor=none;align=center;fillColor=none;html=1;verticalAlign=middle;whiteSpace=wrap;rounded=0;" vertex="1" parent="1">
          <mxGeometry x="460" y="360" width="370" height="60" as="geometry" />
        </mxCell>
      </root>
    </mxGraphModel>
  </diagram>
</mxfile>
